<svg width="85" height="138" viewBox="0 0 85 138" fill="none" xmlns="http://www.w3.org/2000/svg">
<ellipse cx="42.5" cy="84" rx="42.5" ry="42" fill="#F2FBF2"/>
<path d="M75.4 96.08C74.76 96.72 73.544 97.296 71.752 97.808C69.96 98.256 67.88 98.48 65.512 98.48C60.264 98.48 56.968 96.912 55.624 93.776C52.424 97.104 47.528 98.768 40.936 98.768C37.416 98.768 34.504 97.968 32.2 96.368C29.96 94.704 28.84 92.272 28.84 89.072C28.84 84.784 30.504 81.488 33.832 79.184C37.16 76.816 42.984 75.152 51.304 74.192L55.144 73.712V69.008C55.144 63.44 54.728 59.696 53.896 57.776C53.064 55.856 51.4 54.896 48.904 54.896C46.472 54.896 44.904 55.248 44.2 55.952C43.496 56.592 43.24 57.36 43.432 58.256C43.624 59.088 43.944 60.208 44.392 61.616C44.84 63.024 45.064 64.144 45.064 64.976C45.064 66.96 44.36 68.656 42.952 70.064C41.608 71.408 39.944 72.08 37.96 72.08C36.04 72.08 34.376 71.408 32.968 70.064C31.56 68.656 30.856 66.96 30.856 64.976C30.856 61.712 32.52 58.928 35.848 56.624C39.24 54.256 44.264 53.072 50.92 53.072C57.64 53.072 62.408 54.384 65.224 57.008C68.104 59.632 69.544 64.272 69.544 70.928V88.208C69.544 91.6 69.96 93.744 70.792 94.64C71.624 95.472 73.16 95.632 75.4 95.12V96.08ZM42.184 87.152C42.504 89.584 43.4 91.472 44.872 92.816C46.344 94.096 48.04 94.736 49.96 94.736C51.944 94.736 53.672 93.776 55.144 91.856V75.536L51.688 76.016C48.744 76.4 46.344 77.52 44.488 79.376C42.696 81.232 41.928 83.824 42.184 87.152Z" fill="#211147"/>
<path d="M75.4 96.08L76.8142 97.4942L77.4 96.9084V96.08H75.4ZM71.752 97.808L72.2371 99.7483L72.2694 99.7402L72.3014 99.731L71.752 97.808ZM55.624 93.776L57.4623 92.9882L56.2737 90.2148L54.1823 92.3898L55.624 93.776ZM32.2 96.368L31.0074 97.9735L31.033 97.9925L31.0592 98.0107L32.2 96.368ZM33.832 79.184L34.9704 80.8284L34.981 80.8211L34.9915 80.8136L33.832 79.184ZM51.304 74.192L51.5333 76.1788L51.5427 76.1777L51.5521 76.1766L51.304 74.192ZM55.144 73.712L55.3921 75.6966L57.144 75.4776V73.712H55.144ZM53.896 57.776L55.7311 56.9808L55.7311 56.9808L53.896 57.776ZM44.2 55.952L45.5453 57.4319L45.5806 57.3999L45.6142 57.3662L44.2 55.952ZM43.432 58.256L41.4764 58.6751L41.4797 58.6904L41.4832 58.7057L43.432 58.256ZM44.392 61.616L42.4861 62.2224L42.4861 62.2224L44.392 61.616ZM42.952 70.064L44.3662 71.4782L44.3662 71.4782L42.952 70.064ZM32.968 70.064L31.5538 71.4782L31.5702 71.4947L31.587 71.5107L32.968 70.064ZM35.848 56.624L36.9864 58.2684L36.9928 58.2639L35.848 56.624ZM65.224 57.008L63.8606 58.4712L63.8687 58.4788L63.877 58.4864L65.224 57.008ZM70.792 94.64L69.3264 96.0009L69.3516 96.028L69.3778 96.0542L70.792 94.64ZM75.4 95.12H77.4V92.6113L74.9544 93.1703L75.4 95.12ZM42.184 87.152L40.1899 87.3054L40.194 87.3593L40.2011 87.4129L42.184 87.152ZM44.872 92.816L43.5235 94.293L43.5414 94.3093L43.5596 94.3252L44.872 92.816ZM55.144 91.856L56.7312 93.0729L57.144 92.5344V91.856H55.144ZM55.144 75.536H57.144V73.239L54.8689 73.555L55.144 75.536ZM51.688 76.016L51.9467 77.9992L51.9549 77.9981L51.9631 77.997L51.688 76.016ZM44.488 79.376L43.0738 77.9618L43.0614 77.9742L43.0492 77.9868L44.488 79.376ZM73.9858 94.6658C73.7301 94.9215 72.9453 95.387 71.2026 95.885L72.3014 99.731C74.1427 99.205 75.7899 98.5185 76.8142 97.4942L73.9858 94.6658ZM71.2669 95.8677C69.6708 96.2668 67.7599 96.48 65.512 96.48V100.48C68.0001 100.48 70.2492 100.245 72.2371 99.7483L71.2669 95.8677ZM65.512 96.48C60.5751 96.48 58.3353 95.0252 57.4623 92.9882L53.7857 94.5638C55.6007 98.7988 59.9529 100.48 65.512 100.48V96.48ZM54.1823 92.3898C51.4965 95.1831 47.2199 96.768 40.936 96.768V100.768C47.8361 100.768 53.3515 99.0249 57.0657 95.1622L54.1823 92.3898ZM40.936 96.768C37.7194 96.768 35.2332 96.0395 33.3408 94.7253L31.0592 98.0107C33.7748 99.8965 37.1126 100.768 40.936 100.768V96.768ZM33.3926 94.7625C31.7401 93.5349 30.84 91.7453 30.84 89.072H26.84C26.84 92.7987 28.1799 95.8731 31.0074 97.9735L33.3926 94.7625ZM30.84 89.072C30.84 85.3942 32.2189 82.7333 34.9704 80.8284L32.6936 77.5396C28.7891 80.2427 26.84 84.1738 26.84 89.072H30.84ZM34.9915 80.8136C37.8806 78.7579 43.2657 77.1328 51.5333 76.1788L51.0748 72.2052C42.7023 73.1712 36.4394 74.8741 32.6725 77.5544L34.9915 80.8136ZM51.5521 76.1766L55.3921 75.6966L54.8959 71.7274L51.0559 72.2074L51.5521 76.1766ZM57.144 73.712V69.008H53.144V73.712H57.144ZM57.144 69.008C57.144 66.1815 57.0388 63.7741 56.8198 61.8031C56.6044 59.8645 56.2657 58.2145 55.7311 56.9808L52.0609 58.5712C52.3583 59.2575 52.6436 60.4395 52.8442 62.2449C53.0412 64.0179 53.144 66.2665 53.144 69.008H57.144ZM55.7311 56.9808C55.1605 55.664 54.261 54.5976 53.0234 53.8836C51.8097 53.1834 50.4004 52.896 48.904 52.896V56.896C49.9036 56.896 50.5743 57.0886 51.0246 57.3484C51.451 57.5944 51.7995 57.968 52.0609 58.5712L55.7311 56.9808ZM48.904 52.896C47.6076 52.896 46.4469 52.9883 45.4659 53.2086C44.518 53.4214 43.5235 53.8001 42.7858 54.5378L45.6142 57.3662C45.5805 57.3999 45.722 57.2506 46.3421 57.1114C46.9291 56.9797 47.7684 56.896 48.904 56.896V52.896ZM42.8547 54.4721C41.6484 55.5687 41.1282 57.0504 41.4764 58.6751L45.3876 57.8369C45.3564 57.6913 45.3767 57.6425 45.3774 57.6405C45.3794 57.6344 45.4023 57.562 45.5453 57.4319L42.8547 54.4721ZM41.4832 58.7057C41.6931 59.615 42.0317 60.7941 42.4861 62.2224L46.2979 61.0096C45.8563 59.6219 45.5549 58.561 45.3808 57.8063L41.4832 58.7057ZM42.4861 62.2224C42.9122 63.5614 43.064 64.4504 43.064 64.976H47.064C47.064 63.8376 46.7678 62.4866 46.2979 61.0096L42.4861 62.2224ZM43.064 64.976C43.064 66.4274 42.5722 67.6153 41.5378 68.6498L44.3662 71.4782C46.1478 69.6967 47.064 67.4926 47.064 64.976H43.064ZM41.5378 68.6498C40.5868 69.6008 39.4395 70.08 37.96 70.08V74.08C40.4485 74.08 42.6292 73.2152 44.3662 71.4782L41.5378 68.6498ZM37.96 70.08C36.5622 70.08 35.3906 69.6116 34.349 68.6173L31.587 71.5107C33.3614 73.2044 35.5178 74.08 37.96 74.08V70.08ZM34.3822 68.6498C33.3478 67.6153 32.856 66.4274 32.856 64.976H28.856C28.856 67.4926 29.7722 69.6967 31.5538 71.4782L34.3822 68.6498ZM32.856 64.976C32.856 62.5281 34.0518 60.3 36.9864 58.2684L34.7096 54.9796C30.9882 57.5559 28.856 60.8959 28.856 64.976H32.856ZM36.9928 58.2639C39.9008 56.2338 44.4449 55.072 50.92 55.072V51.072C44.0831 51.072 38.5792 52.2782 34.7032 54.9841L36.9928 58.2639ZM50.92 55.072C57.48 55.072 61.6075 56.3718 63.8606 58.4712L66.5875 55.5448C63.2085 52.3962 57.8 51.072 50.92 51.072V55.072ZM63.877 58.4864C66.126 60.5354 67.544 64.4565 67.544 70.928H71.544C71.544 64.0875 70.082 58.7286 66.571 55.5296L63.877 58.4864ZM67.544 70.928V88.208H71.544V70.928H67.544ZM67.544 88.208C67.544 89.97 67.6508 91.4946 67.8926 92.741C68.1233 93.93 68.5259 95.1388 69.3264 96.0009L72.2576 93.2791C72.2583 93.2798 72.1905 93.2041 72.0962 92.9745C72.0036 92.7489 71.9059 92.4249 71.8194 91.979C71.6452 91.0814 71.544 89.838 71.544 88.208H67.544ZM69.3778 96.0542C71.0142 97.6906 73.5401 97.5967 75.8457 97.0697L74.9544 93.1703C72.7799 93.6673 72.2338 93.2534 72.2062 93.2258L69.3778 96.0542ZM73.4 95.12V96.08H77.4V95.12H73.4ZM40.2011 87.4129C40.5679 90.2007 41.6283 92.5626 43.5235 94.293L46.2205 91.339C45.1717 90.3814 44.4401 88.9673 44.1669 86.8911L40.2011 87.4129ZM43.5596 94.3252C45.3892 95.9161 47.5493 96.736 49.96 96.736V92.736C48.5307 92.736 47.2988 92.2759 46.1844 91.3068L43.5596 94.3252ZM49.96 96.736C52.7038 96.736 54.9732 95.3659 56.7312 93.0729L53.5568 90.6391C52.3708 92.1861 51.1842 92.736 49.96 92.736V96.736ZM57.144 91.856V75.536H53.144V91.856H57.144ZM54.8689 73.555L51.4129 74.035L51.9631 77.997L55.4191 77.517L54.8689 73.555ZM51.4293 74.0328C48.1082 74.466 45.2821 75.7535 43.0738 77.9618L45.9022 80.7902C47.4059 79.2865 49.3798 78.334 51.9467 77.9992L51.4293 74.0328ZM43.0492 77.9868C40.751 80.3671 39.9038 83.5857 40.1899 87.3054L44.1781 86.9986C43.9522 84.0623 44.641 82.0969 45.9268 80.7652L43.0492 77.9868Z" fill="black"/>
<path d="M18.288 98.016C15.856 98.016 13.776 97.152 12.048 95.424C10.32 93.696 9.456 91.616 9.456 89.184C9.456 86.688 10.32 84.576 12.048 82.848C13.776 81.12 15.856 80.256 18.288 80.256C20.784 80.256 22.896 81.12 24.624 82.848C26.352 84.576 27.216 86.688 27.216 89.184C27.216 91.616 26.352 93.696 24.624 95.424C22.896 97.152 20.784 98.016 18.288 98.016Z" fill="#211147"/>
<path d="M25.39 111.832V111.572H31.396V111.832H25.39ZM33.417 110.896C34.3183 110.896 34.769 110.649 34.769 110.155C34.769 109.878 34.613 109.652 34.301 109.479C33.989 109.297 33.612 109.15 33.17 109.037C32.728 108.924 32.2903 108.794 31.857 108.647C31.4323 108.5 31.077 108.266 30.791 107.945C30.5137 107.624 30.401 107.204 30.453 106.684C30.505 106.164 30.7693 105.735 31.246 105.397C31.7313 105.059 32.325 104.89 33.027 104.89C33.7377 104.89 34.3097 105.003 34.743 105.228C35.1763 105.453 35.419 105.757 35.471 106.138C35.5057 106.372 35.4667 106.589 35.354 106.788C35.25 106.987 35.0723 107.091 34.821 107.1C34.5783 107.109 34.3747 107.044 34.21 106.905C34.054 106.766 33.9803 106.606 33.989 106.424C33.9977 106.242 34.067 106.082 34.197 105.943C34.327 105.796 34.392 105.679 34.392 105.592C34.392 105.445 34.249 105.336 33.963 105.267C33.6857 105.189 33.3607 105.15 32.988 105.15C32.624 105.15 32.325 105.232 32.091 105.397C31.857 105.562 31.74 105.765 31.74 106.008C31.74 106.251 31.883 106.459 32.169 106.632C32.4637 106.805 32.819 106.948 33.235 107.061C33.651 107.165 34.0627 107.286 34.47 107.425C34.886 107.555 35.237 107.767 35.523 108.062C35.8177 108.357 35.965 108.729 35.965 109.18C35.965 109.778 35.7527 110.259 35.328 110.623C34.9033 110.978 34.262 111.156 33.404 111.156C32.546 111.156 31.8483 111.026 31.311 110.766C30.7823 110.506 30.492 110.172 30.44 109.765C30.4053 109.531 30.4443 109.314 30.557 109.115C30.6697 108.916 30.8473 108.812 31.09 108.803C31.3327 108.794 31.532 108.859 31.688 108.998C31.8527 109.137 31.9307 109.297 31.922 109.479C31.9133 109.661 31.844 109.826 31.714 109.973C31.584 110.112 31.519 110.224 31.519 110.311C31.519 110.484 31.7183 110.627 32.117 110.74C32.5243 110.844 32.9577 110.896 33.417 110.896ZM36.9869 110.22C37.1776 110.653 37.5069 110.87 37.9749 110.87C38.4429 110.87 38.7766 110.649 38.9759 110.207C39.1752 109.765 39.2749 109.037 39.2749 108.023C39.2749 107 39.1752 106.268 38.9759 105.826C38.7766 105.375 38.4429 105.15 37.9749 105.15C37.5069 105.15 37.1776 105.375 36.9869 105.826C36.7962 106.268 36.7009 107 36.7009 108.023C36.7009 109.046 36.7962 109.778 36.9869 110.22ZM37.9489 111.13C37.1256 111.13 36.3802 110.861 35.7129 110.324C35.0456 109.787 34.7119 109.024 34.7119 108.036C34.7119 107.507 34.8072 107.035 34.9979 106.619C35.1972 106.203 35.4572 105.874 35.7779 105.631C36.1072 105.388 36.4582 105.206 36.8309 105.085C37.2036 104.955 37.5849 104.89 37.9749 104.89C38.3649 104.89 38.7462 104.955 39.1189 105.085C39.5002 105.206 39.8512 105.388 40.1719 105.631C40.5012 105.874 40.7656 106.203 40.9649 106.619C41.1642 107.035 41.2639 107.503 41.2639 108.023C41.2639 108.543 41.1642 109.007 40.9649 109.414C40.7656 109.821 40.5012 110.146 40.1719 110.389C39.5132 110.883 38.7722 111.13 37.9489 111.13ZM47.1848 110.74H47.8348V111H44.5848V110.74H45.2348V107.1C45.2348 106.485 45.1438 106.047 44.9618 105.787C44.7798 105.527 44.5068 105.397 44.1428 105.397C43.6488 105.397 43.2545 105.657 42.9598 106.177V110.74H43.6098V111H40.3598V110.74H41.0098V105.28H40.3598V105.02H42.9598V105.696C43.1245 105.471 43.3801 105.28 43.7268 105.124C44.0821 104.959 44.4635 104.877 44.8708 104.877C46.4135 104.877 47.1848 105.713 47.1848 107.386V110.74ZM48.5047 109.791C48.5047 110.034 48.6607 110.172 48.9727 110.207H51.2087C51.98 110.207 52.5174 110.372 52.8207 110.701C53.124 111.03 53.228 111.438 53.1327 111.923C53.046 112.408 52.7514 112.855 52.2487 113.262C51.746 113.669 51.0527 113.873 50.1687 113.873C48.548 113.873 47.508 113.635 47.0487 113.158C46.8754 112.967 46.8017 112.742 46.8277 112.482C46.8537 112.231 46.949 112.023 47.1137 111.858C47.2784 111.702 47.4647 111.594 47.6727 111.533C47.3954 111.299 47.2567 111.009 47.2567 110.662C47.2567 110.315 47.3607 110.008 47.5687 109.739C47.7854 109.462 48.0324 109.241 48.3097 109.076C47.313 108.712 46.8147 108.058 46.8147 107.113C46.8147 106.411 47.1354 105.869 47.7767 105.488C48.4267 105.098 49.159 104.903 49.9737 104.903C50.3637 104.903 50.7537 104.964 51.1437 105.085C50.9444 104.816 50.8447 104.496 50.8447 104.123C50.8447 103.75 50.9704 103.443 51.2217 103.2C51.4817 102.949 51.8024 102.823 52.1837 102.823C52.5737 102.823 52.864 102.927 53.0547 103.135C53.254 103.334 53.3537 103.56 53.3537 103.811C53.3537 104.062 53.2757 104.275 53.1197 104.448C52.9724 104.621 52.773 104.708 52.5217 104.708C52.279 104.708 52.084 104.626 51.9367 104.461C51.7894 104.296 51.7157 104.132 51.7157 103.967C51.7157 103.794 51.746 103.646 51.8067 103.525C51.876 103.395 51.9107 103.321 51.9107 103.304C51.8847 103.165 51.798 103.126 51.6507 103.187C51.5034 103.248 51.3734 103.373 51.2607 103.564C51.1567 103.746 51.1047 103.958 51.1047 104.201C51.1047 104.678 51.317 105.059 51.7417 105.345C52.487 105.761 52.8597 106.337 52.8597 107.074C52.8597 107.811 52.552 108.37 51.9367 108.751C51.3214 109.124 50.5934 109.31 49.7527 109.31C49.3454 109.31 48.9857 109.267 48.6737 109.18C48.561 109.371 48.5047 109.574 48.5047 109.791ZM50.9097 107.087C50.9097 106.342 50.823 105.835 50.6497 105.566C50.4764 105.297 50.2164 105.163 49.8697 105.163C49.5317 105.163 49.2847 105.302 49.1287 105.579C48.9727 105.848 48.8947 106.346 48.8947 107.074C48.8947 107.802 48.977 108.313 49.1417 108.608C49.3064 108.903 49.5534 109.05 49.8827 109.05C50.2207 109.05 50.4764 108.907 50.6497 108.621C50.823 108.335 50.9097 107.824 50.9097 107.087ZM51.1307 111.897H48.9467C48.5307 111.897 48.1797 111.823 47.8937 111.676C47.7724 112.3 47.9284 112.777 48.3617 113.106C48.8037 113.444 49.406 113.613 50.1687 113.613C50.9314 113.613 51.564 113.422 52.0667 113.041C52.3007 112.868 52.4307 112.694 52.4567 112.521C52.4827 112.348 52.383 112.2 52.1577 112.079C51.9324 111.958 51.59 111.897 51.1307 111.897ZM52.1543 111.832V111.572H58.1603V111.832H52.1543Z" fill="#211147"/>
</svg>
