<svg width="92" height="89" viewBox="0 0 92 89" fill="none" xmlns="http://www.w3.org/2000/svg">
<g clip-path="url(#clip0)">
<ellipse cx="46" cy="44.5" rx="46" ry="44.5" fill="#F2FBF2"/>
<path d="M18.7821 59.8732C16.3501 59.8732 14.2701 59.0092 12.5421 57.2812C10.8141 55.5532 9.95011 53.4732 9.95011 51.0412C9.95011 48.5452 10.8141 46.4332 12.5421 44.7052C14.2701 42.9772 16.3501 42.1132 18.7821 42.1132C21.2781 42.1132 23.3901 42.9772 25.1181 44.7052C26.8461 46.4332 27.7101 48.5452 27.7101 51.0412C27.7101 53.4732 26.8461 55.5532 25.1181 57.2812C23.3901 59.0092 21.2781 59.8732 18.7821 59.8732Z" fill="#211147"/>
<path d="M77.4588 55.9372C76.8188 56.5772 75.6028 57.1532 73.8108 57.6652C72.0188 58.1132 69.9388 58.3372 67.5708 58.3372C62.3228 58.3372 59.0268 56.7692 57.6828 53.6332C54.4828 56.9612 49.5868 58.6252 42.9948 58.6252C39.4748 58.6252 36.5628 57.8252 34.2588 56.2252C32.0188 54.5612 30.8988 52.1292 30.8988 48.9292C30.8988 44.6412 32.5628 41.3452 35.8908 39.0412C39.2188 36.6732 45.0428 35.0092 53.3628 34.0492L57.2028 33.5692V28.8652C57.2028 23.2972 56.7868 19.5532 55.9548 17.6332C55.1228 15.7132 53.4588 14.7532 50.9628 14.7532C48.5308 14.7532 46.9628 15.1052 46.2588 15.8092C45.5548 16.4492 45.2988 17.2172 45.4908 18.1132C45.6828 18.9452 46.0028 20.0652 46.4508 21.4732C46.8988 22.8812 47.1228 24.0012 47.1228 24.8332C47.1228 26.8172 46.4188 28.5132 45.0108 29.9212C43.6668 31.2652 42.0028 31.9372 40.0188 31.9372C38.0988 31.9372 36.4348 31.2652 35.0268 29.9212C33.6188 28.5132 32.9148 26.8172 32.9148 24.8332C32.9148 21.5692 34.5788 18.7852 37.9068 16.4812C41.2988 14.1132 46.3228 12.9292 52.9788 12.9292C59.6988 12.9292 64.4668 14.2412 67.2828 16.8652C70.1628 19.4892 71.6028 24.1292 71.6028 30.7852V48.0652C71.6028 51.4572 72.0188 53.6012 72.8508 54.4972C73.6828 55.3292 75.2188 55.4892 77.4588 54.9772V55.9372ZM44.2428 47.0092C44.5628 49.4412 45.4588 51.3292 46.9308 52.6732C48.4028 53.9532 50.0988 54.5932 52.0188 54.5932C54.0028 54.5932 55.7308 53.6332 57.2028 51.7132V35.3932L53.7468 35.8732C50.8028 36.2572 48.4028 37.3772 46.5468 39.2332C44.7548 41.0892 43.9868 43.6812 44.2428 47.0092Z" fill="#211147"/>
<path d="M26.3665 77.4034V77.1434H32.3725V77.4034H26.3665ZM35.5635 76.4674C36.4648 76.4674 36.9155 76.2204 36.9155 75.7264C36.9155 75.4491 36.7595 75.2237 36.4475 75.0504C36.1355 74.8684 35.7585 74.7211 35.3165 74.6084C34.8745 74.4957 34.4368 74.3657 34.0035 74.2184C33.5788 74.0711 33.2235 73.8371 32.9375 73.5164C32.6601 73.1957 32.5475 72.7754 32.5995 72.2554C32.6515 71.7354 32.9158 71.3064 33.3925 70.9684C33.8778 70.6304 34.4715 70.4614 35.1735 70.4614C35.8841 70.4614 36.4561 70.5741 36.8895 70.7994C37.3228 71.0247 37.5655 71.3281 37.6175 71.7094C37.6521 71.9434 37.6131 72.1601 37.5005 72.3594C37.3965 72.5587 37.2188 72.6627 36.9675 72.6714C36.7248 72.6801 36.5211 72.6151 36.3565 72.4764C36.2005 72.3377 36.1268 72.1774 36.1355 71.9954C36.1441 71.8134 36.2135 71.6531 36.3435 71.5144C36.4735 71.3671 36.5385 71.2501 36.5385 71.1634C36.5385 71.0161 36.3955 70.9077 36.1095 70.8384C35.8321 70.7604 35.5071 70.7214 35.1345 70.7214C34.7705 70.7214 34.4715 70.8037 34.2375 70.9684C34.0035 71.1331 33.8865 71.3367 33.8865 71.5794C33.8865 71.8221 34.0295 72.0301 34.3155 72.2034C34.6101 72.3767 34.9655 72.5197 35.3815 72.6324C35.7975 72.7364 36.2091 72.8577 36.6165 72.9964C37.0325 73.1264 37.3835 73.3387 37.6695 73.6334C37.9641 73.9281 38.1115 74.3007 38.1115 74.7514C38.1115 75.3494 37.8991 75.8304 37.4745 76.1944C37.0498 76.5497 36.4085 76.7274 35.5505 76.7274C34.6925 76.7274 33.9948 76.5974 33.4575 76.3374C32.9288 76.0774 32.6385 75.7437 32.5865 75.3364C32.5518 75.1024 32.5908 74.8857 32.7035 74.6864C32.8161 74.4871 32.9938 74.3831 33.2365 74.3744C33.4791 74.3657 33.6785 74.4307 33.8345 74.5694C33.9991 74.7081 34.0771 74.8684 34.0685 75.0504C34.0598 75.2324 33.9905 75.3971 33.8605 75.5444C33.7305 75.6831 33.6655 75.7957 33.6655 75.8824C33.6655 76.0557 33.8648 76.1987 34.2635 76.3114C34.6708 76.4154 35.1041 76.4674 35.5635 76.4674ZM40.3034 75.7914C40.4941 76.2247 40.8234 76.4414 41.2914 76.4414C41.7594 76.4414 42.0931 76.2204 42.2924 75.7784C42.4917 75.3364 42.5914 74.6084 42.5914 73.5944C42.5914 72.5717 42.4917 71.8394 42.2924 71.3974C42.0931 70.9467 41.7594 70.7214 41.2914 70.7214C40.8234 70.7214 40.4941 70.9467 40.3034 71.3974C40.1127 71.8394 40.0174 72.5717 40.0174 73.5944C40.0174 74.6171 40.1127 75.3494 40.3034 75.7914ZM41.2654 76.7014C40.4421 76.7014 39.6967 76.4327 39.0294 75.8954C38.3621 75.3581 38.0284 74.5954 38.0284 73.6074C38.0284 73.0787 38.1237 72.6064 38.3144 72.1904C38.5137 71.7744 38.7737 71.4451 39.0944 71.2024C39.4237 70.9597 39.7747 70.7777 40.1474 70.6564C40.5201 70.5264 40.9014 70.4614 41.2914 70.4614C41.6814 70.4614 42.0627 70.5264 42.4354 70.6564C42.8167 70.7777 43.1677 70.9597 43.4884 71.2024C43.8177 71.4451 44.0821 71.7744 44.2814 72.1904C44.4807 72.6064 44.5804 73.0744 44.5804 73.5944C44.5804 74.1144 44.4807 74.5781 44.2814 74.9854C44.0821 75.3927 43.8177 75.7177 43.4884 75.9604C42.8297 76.4544 42.0887 76.7014 41.2654 76.7014ZM51.6713 76.3114H52.3213V76.5714H49.0713V76.3114H49.7213V72.6714C49.7213 72.0561 49.6303 71.6184 49.4483 71.3584C49.2663 71.0984 48.9933 70.9684 48.6293 70.9684C48.1353 70.9684 47.7409 71.2284 47.4463 71.7484V76.3114H48.0963V76.5714H44.8463V76.3114H45.4963V70.8514H44.8463V70.5914H47.4463V71.2674C47.6109 71.0421 47.8666 70.8514 48.2133 70.6954C48.5686 70.5307 48.9499 70.4484 49.3573 70.4484C50.8999 70.4484 51.6713 71.2847 51.6713 72.9574V76.3114ZM54.1612 75.3624C54.1612 75.6051 54.3172 75.7437 54.6292 75.7784H56.8652C57.6365 75.7784 58.1738 75.9431 58.4772 76.2724C58.7805 76.6017 58.8845 77.0091 58.7892 77.4944C58.7025 77.9797 58.4078 78.4261 57.9052 78.8334C57.4025 79.2407 56.7092 79.4444 55.8252 79.4444C54.2045 79.4444 53.1645 79.2061 52.7052 78.7294C52.5318 78.5387 52.4582 78.3134 52.4842 78.0534C52.5102 77.8021 52.6055 77.5941 52.7702 77.4294C52.9348 77.2734 53.1212 77.1651 53.3292 77.1044C53.0518 76.8704 52.9132 76.5801 52.9132 76.2334C52.9132 75.8867 53.0172 75.5791 53.2252 75.3104C53.4418 75.0331 53.6888 74.8121 53.9662 74.6474C52.9695 74.2834 52.4712 73.6291 52.4712 72.6844C52.4712 71.9824 52.7918 71.4407 53.4332 71.0594C54.0832 70.6694 54.8155 70.4744 55.6302 70.4744C56.0202 70.4744 56.4102 70.5351 56.8002 70.6564C56.6008 70.3877 56.5012 70.0671 56.5012 69.6944C56.5012 69.3217 56.6268 69.0141 56.8782 68.7714C57.1382 68.5201 57.4588 68.3944 57.8402 68.3944C58.2302 68.3944 58.5205 68.4984 58.7112 68.7064C58.9105 68.9057 59.0102 69.1311 59.0102 69.3824C59.0102 69.6337 58.9322 69.8461 58.7762 70.0194C58.6288 70.1927 58.4295 70.2794 58.1782 70.2794C57.9355 70.2794 57.7405 70.1971 57.5932 70.0324C57.4458 69.8677 57.3722 69.7031 57.3722 69.5384C57.3722 69.3651 57.4025 69.2177 57.4632 69.0964C57.5325 68.9664 57.5672 68.8927 57.5672 68.8754C57.5412 68.7367 57.4545 68.6977 57.3072 68.7584C57.1598 68.8191 57.0298 68.9447 56.9172 69.1354C56.8132 69.3174 56.7612 69.5297 56.7612 69.7724C56.7612 70.2491 56.9735 70.6304 57.3982 70.9164C58.1435 71.3324 58.5162 71.9087 58.5162 72.6454C58.5162 73.3821 58.2085 73.9411 57.5932 74.3224C56.9778 74.6951 56.2498 74.8814 55.4092 74.8814C55.0018 74.8814 54.6422 74.8381 54.3302 74.7514C54.2175 74.9421 54.1612 75.1457 54.1612 75.3624ZM56.5662 72.6584C56.5662 71.9131 56.4795 71.4061 56.3062 71.1374C56.1328 70.8687 55.8728 70.7344 55.5262 70.7344C55.1882 70.7344 54.9412 70.8731 54.7852 71.1504C54.6292 71.4191 54.5512 71.9174 54.5512 72.6454C54.5512 73.3734 54.6335 73.8847 54.7982 74.1794C54.9628 74.4741 55.2098 74.6214 55.5392 74.6214C55.8772 74.6214 56.1328 74.4784 56.3062 74.1924C56.4795 73.9064 56.5662 73.3951 56.5662 72.6584ZM56.7872 77.4684H54.6032C54.1872 77.4684 53.8362 77.3947 53.5502 77.2474C53.4288 77.8714 53.5848 78.3481 54.0182 78.6774C54.4602 79.0154 55.0625 79.1844 55.8252 79.1844C56.5878 79.1844 57.2205 78.9937 57.7232 78.6124C57.9572 78.4391 58.0872 78.2657 58.1132 78.0924C58.1392 77.9191 58.0395 77.7717 57.8142 77.6504C57.5888 77.5291 57.2465 77.4684 56.7872 77.4684ZM58.9807 77.4034V77.1434H64.9867V77.4034H58.9807Z" fill="#211147"/>
</g>
<defs>
<clipPath id="clip0">
<rect width="92" height="89" fill="white"/>
</clipPath>
</defs>
</svg>
